:SAMPLES-PER-SECOND 30
:FRAME-RANGE 1-744
:FULLY-SPECIFIED
:DEGREES
187
root  -12.6425 40.059 -62.6074 5.13759 78.8647 2.59802
RightUpLeg  -5.31055 -3.99308 -6.64889
RightLeg  11.9283 -1.1497 -0.703643
RightFoot  -7.46172 -0.278311 6.70946
RightToes  -5.28216e-011 1.2921e-014 -6.02303e-014
Spine  -6.8193 0.359854 0.00492469
Spine1  7.79824 1.85429 -6.47944
HEad  28.0817 -9.07111 2.35181
LeftShoulder1  -0.127347 3.81769 -18.3825
LeftArm  2.57473 27.2124 -30.5899
LeftForeArm  56.4797 -78.69 -80.9534
LeftHand  -0.0724352 6.33054 -4.06391
RightShoulder  1.14278 0.60604 22.9462
RightArm  5.20056 0.481813 45.7461
RightForeArm  25.3421 72.0112 35.1704
RightHand  -0.21414 -11.9888 2.50479
LeftUpLeg  -9.49854 -0.871937 -2.95757
LeftLeg  10.7169 -16.8583 -1.82191
LeftFoot  -2.22823 -0.378492 4.91532
LeftToes  -9.4837e-011 -7.11147e-011 -1.07582e-011
188
root  -12.6153 39.9836 -62.361 5.61798 77.5897 3.01872
RightUpLeg  -6.50127 -2.32681 -6.44184
RightLeg  13.9702 -1.42893 -0.714331
RightFoot  -8.53825 -0.220359 6.6245
RightToes  -5.28216e-011 1.2921e-014 -6.02303e-014
Spine  -6.67014 0.374241 -0.661341
Spine1  7.69084 1.7594 -6.05224
HEad  27.4305 -12.4721 2.77122
LeftShoulder1  -0.0529426 3.51735 -18.3856
LeftArm  3.29083 28.7613 -30.5935
LeftForeArm  57.2794 -78.7235 -80.8868
LeftHand  -0.0506878 6.01424 -2.73273
RightShoulder  1.09351 0.408178 23.177
RightArm  4.81833 -0.848891 45.0965
RightForeArm  26.6992 72.2611 35.6059
RightHand  -0.21757 -11.1769 3.00484
LeftUpLeg  -9.92852 -0.398351 -2.61239
LeftLeg  11.906 -16.0305 -2.12424
LeftFoot  -3.2729 -0.319127 4.80246
LeftToes  -9.4837e-011 -7.11147e-011 -1.07582e-011
189
root  -12.6533 39.8895 -62.0531 5.42238 75.4928 2.77901
RightUpLeg  -8.33536 -0.364908 -6.05518
RightLeg  16.8366 -1.14775 -0.593634
RightFoot  -9.44399 -0.167278 6.21756
RightToes  -5.28216e-011 1.2921e-014 -6.02303e-014
Spine  -6.3589 0.541835 -1.44729
Spine1  7.5879 1.85758 -5.73916
HEad  26.5667 -15.6506 3.87399
LeftShoulder1  -0.0563546 3.53277 -18.1935
LeftArm  3.99119 30.0094 -30.6646
LeftForeArm  60.0851 -78.8138 -82.7723
LeftHand  -0.0315876 5.37482 -2.44407
RightShoulder  1.10283 0.406453 23.4589
RightArm  4.44927 -1.81752 44.7778
RightForeArm  27.2448 72.2259 35.379
RightHand  -0.198881 -10.4632 3.09867
LeftUpLeg  -10.4534 0.58615 -1.88476
LeftLeg  13.3052 -14.8621 -2.64133
LeftFoot  -4.45313 -0.248026 4.56541
LeftToes  -9.4837e-011 -7.11147e-011 -1.07582e-011
190
root  -12.719 39.8282 -61.75 5.31003 72.9565 2.48412
RightUpLeg  -10.6043 1.3631 -5.70346
RightLeg  19.9629 -0.112079 -0.250631
RightFoot  -9.91947 -0.148853 6.55291
RightToes  -5.28216e-011 1.2921e-014 -6.02303e-014
Spine  -6.2124 0.722499 -2.18591
Spine1  7.64081 2.0063 -5.51048
HEad  25.7713 -18.1936 4.85059
LeftShoulder1  -0.045084 3.48592 -18.3431
LeftArm  4.02361 30.738 -30.452
LeftForeArm  61.3696 -78.8663 -82.827
LeftHand  -0.0161587 5.14109 -3.75465
RightShoulder  1.0935 0.333618 23.813
RightArm  4.05564 -2.64942 44.8602
RightForeArm  26.8405 71.9542 34.6812
RightHand  -0.185426 -9.91216 3.21423
LeftUpLeg  -10.7185 1.74108 -1.10915
LeftLeg  13.9194 -13.5939 -2.89255
LeftFoot  -5.29478 -0.171903 3.8581
LeftToes  -9.4837e-011 -7.11147e-011 -1.07582e-011
191
root  -12.8166 39.7234 -61.4276 5.66534 70.1034 2.66454
RightUpLeg  -13.0028 1.92676 -5.60439
RightLeg  23.2182 1.86874 0.670278
RightFoot  -10.9579 -0.101572 8.06573
RightToes  -5.28216e-011 1.2921e-014 -6.02303e-014
Spine  -5.88742 0.7824 -3.03532
Spine1  7.49209 2.12385 -5.73275
HEad  24.9674 -20.0143 5.7285
LeftShoulder1  -0.0228153 3.39706 -18.0047
LeftArm  3.41752 31.5336 -30.693
LeftForeArm  63.598 -78.9294 -84.3168
LeftHand  -0.0196064 5.35137 -3.71593
RightShoulder  1.07591 0.220437 24.2986
RightArm  4.01266 -3.43353 45.1526
RightForeArm  26.4796 71.5221 33.575
RightHand  -0.165823 -9.22087 3.32564
LeftUpLeg  -11.0621 2.77156 -0.493037
LeftLeg  14.7641 -11.887 -2.95274
LeftFoot  -6.3214 -0.0882775 2.88224
LeftToes  -9.4837e-011 -7.11147e-011 -1.07582e-011
192
root  -12.9127 39.6283 -61.0813 5.96527 67.2419 2.84035
RightUpLeg  -15.2129 1.78969 -5.5211
RightLeg  26.1666 2.93135 1.35418
RightFoot  -12.8038 0.0283505 9.0278
RightToes  -5.28216e-011 1.2921e-014 -6.02303e-014
Spine  -5.46828 0.783523 -3.99242
Spine1  7.16756 2.13573 -5.73664
HEad  24.4531 -21.3207 6.55014
LeftShoulder1  0.00117381 3.29876 -17.6927
LeftArm  2.77354 31.9467 -30.5129
LeftForeArm  64.9511 -78.9715 -84.9346
LeftHand  -0.0183609 5.29075 -3.83464
RightShoulder  1.01572 -0.0250439 24.7532
RightArm  3.8228 -5.02112 45.651
RightForeArm  27.617 71.538 33.3787
RightHand  -0.137319 -8.644 3.04242
LeftUpLeg  -11.3064 3.48454 -0.0164527
LeftLeg  15.6108 -9.89677 -2.61402
LeftFoot  -7.36983 -0.0288392 2.11115
LeftToes  -9.4837e-011 -7.11147e-011 -1.07582e-011
193
root  -13.0056 39.5814 -60.7225 5.74409 64.4241 2.48543
RightUpLeg  -16.9802 0.565666 -5.2633
RightLeg  28.0815 2.67945 1.33285
RightFoot  -14.0863 0.120355 9.0038
RightToes  -5.28216e-011 1.2921e-014 -6.02303e-014
Spine  -5.14849 0.656995 -4.65265
Spine1  7.02469 1.97438 -5.53495
HEad  23.7104 -22.2156 7.42266
LeftShoulder1  0.03693 3.14989 -17.5805
LeftArm  2.47795 32.0588 -29.9387
LeftForeArm  66.8346 -79.0051 -86.5735
LeftHand  -0.0241078 5.34249 -3.3887
RightShoulder  0.992035 -0.156652 25.314
RightArm  3.34928 -7.17826 45.971
RightForeArm  29.0861 71.6666 33.408
RightHand  -0.118992 -8.06813 3.05455
LeftUpLeg  -11.1337 4.24346 0.710015
LeftLeg  15.8359 -7.97304 -2.16509
LeftFoot  -8.06027 0.00951681 1.36058
LeftToes  -9.4837e-011 -7.11147e-011 -1.07582e-011
194
root  -13.0745 39.5629 -60.353 5.60941 61.6353 2.03812
RightUpLeg  -18.6221 -0.384295 -5.2743
RightLeg  29.0036 1.53705 0.702968
RightFoot  -14.364 0.12861 8.5606
RightToes  -5.28216e-011 1.2921e-014 -6.02303e-014
Spine  -5.13496 0.40601 -5.13624
Spine1  6.95098 1.66046 -5.11189
HEad  22.9349 -22.6075 7.95139
LeftShoulder1  0.0892304 2.93155 -17.5401
LeftArm  2.31247 32.0293 -29.5317
LeftForeArm  66.543 -79.0177 -85.7271
LeftHand  -0.0359422 5.57479 -2.06355
RightShoulder  0.960021 -0.308263 25.8533
RightArm  3.21729 -9.37389 45.8338
RightForeArm  28.9781 71.4279 32.8081
RightHand  -0.0958221 -7.71202 2.5104
LeftUpLeg  -10.802 5.2365 1.65052
LeftLeg  15.664 -6.35269 -2.03145
LeftFoot  -8.55388 0.040937 0.430787
LeftToes  -9.4837e-011 -7.11147e-011 -1.07582e-011
195
root  -13.1419 39.5443 -59.9656 5.25885 58.703 1.46175
RightUpLeg  -19.9287 -0.876917 -5.63763
RightLeg  28.9935 0.570921 0.122722
RightFoot  -14.2291 0.111054 8.2294
RightToes  -5.28216e-011 1.2921e-014 -6.02303e-014
Spine  -5.00032 0.11446 -5.37103
Spine1  6.89018 1.28394 -4.6649
HEad  22.1387 -22.6083 8.32602
LeftShoulder1  0.168072 2.59679 -17.3237
LeftArm  2.40092 32.1498 -29.6783
LeftForeArm  66.9571 -79.0363 -85.6939
LeftHand  -0.0394947 5.63759 -1.58152
RightShoulder  0.929893 -0.451728 26.4216
RightArm  2.8854 -11.4633 45.4446
RightForeArm  29.4552 71.2858 32.3503
RightHand  -0.0837936 -7.23568 2.5755
LeftUpLeg  -10.254 5.9096 2.55346
LeftLeg  15.4862 -4.32957 -1.46385
LeftFoot  -9.09613 0.0627902 -0.415921
LeftToes  -9.4837e-011 -7.11147e-011 -1.07582e-011
